<svg xmlns="http://www.w3.org/2000/svg" viewBox="0 0 24 24" fill="none" stroke="currentColor" stroke-linecap="round" stroke-linejoin="round" width="64" height="64" stroke-width="1.8" data-icon-key="equipment_draft_inducer" aria-hidden="true"><circle cx="12" cy="12" r="2"></circle><path d="M12 6c2 0 3.5 1.5 3.5 3.5-2 0-3.5-1.5-3.5-3.5Z"></path><path d="M17.5 12c0 2-1.5 3.5-3.5 3.5 0-2 1.5-3.5 3.5-3.5Z"></path><path d="M12 18c-2 0-3.5-1.5-3.5-3.5 2 0 3.5 1.5 3.5 3.5Z"></path><path d="M6.5 12c0-2 1.5-3.5 3.5-3.5 0 2-1.5-3.5-3.5 3.5Z"></path><path d="M15.8 6.5h4.4M18 4.2v4.6"></path></svg>