<svg width="256" height="256" viewBox="0 0 256 256" fill="none" xmlns="http://www.w3.org/2000/svg">
  <rect x="20" y="20" width="216" height="216" rx="48" fill="#ECFEFF"/>
  <rect x="54" y="84" width="148" height="88" rx="18" stroke="#0F766E" stroke-width="12"/>
  <circle cx="128" cy="128" r="18" stroke="#14B8A6" stroke-width="12"/>
  <path d="M128 92C146 92 160 106 160 124C142 124 128 110 128 92Z" fill="#14B8A6"/>
  <path d="M164 128C164 146 150 160 132 160C132 142 146 128 164 128Z" fill="#14B8A6"/>
  <path d="M128 164C110 164 96 150 96 132C114 132 128 146 128 164Z" fill="#14B8A6"/>
  <path d="M92 128C92 110 106 96 124 96C124 114 110 128 92 128Z" fill="#14B8A6"/>
</svg>
